<svg width="232" height="100" viewBox="0 0 232 100" fill="none" xmlns="http://www.w3.org/2000/svg">
    <path d="M50.079 12C44.147 12.0001 31.2945 44.7792 50.0791 44.7792L50.079 12Z" fill="#0C1C25"/>
    <path d="M50.079 12C56.011 12.0001 68.8636 44.7792 50.0791 44.7792L50.079 12Z" fill="#0C1C25"/>
    <path d="M81.423 80.3587C85.3922 75.8351 70.2528 44.1009 57.6835 58.4251L81.423 80.3587Z" fill="#0C1C25"/>
    <path d="M81.423 80.3587C77.4537 84.8821 45.1142 72.7494 57.6835 58.4251L81.423 80.3587Z" fill="#0C1C25"/>
    <path d="M18.577 80.5047C14.6078 75.9811 29.7472 44.2469 42.3165 58.5712L18.577 80.5047Z" fill="#0C1C25"/>
    <path d="M18.577 80.5047C22.5463 85.0281 54.8858 72.8955 42.3165 58.5712L18.577 80.5047Z" fill="#0C1C25"/>
    <path d="M99.62 36.836H105.92L115.172 51.812V36.836H121.544V62H115.28L105.992 46.988V62H99.62V36.836ZM137.608 62.54C135.064 62.54 132.76 61.988 130.696 60.884C128.656 59.78 127.036 58.244 125.836 56.276C124.66 54.284 124.072 52.004 124.072 49.436C124.072 46.868 124.66 44.588 125.836 42.596C127.036 40.604 128.656 39.056 130.696 37.952C132.76 36.848 135.064 36.296 137.608 36.296C140.128 36.296 142.408 36.848 144.448 37.952C146.512 39.056 148.132 40.604 149.308 42.596C150.484 44.588 151.072 46.868 151.072 49.436C151.072 52.004 150.484 54.284 149.308 56.276C148.132 58.244 146.512 59.78 144.448 60.884C142.408 61.988 140.128 62.54 137.608 62.54ZM137.608 56.564C138.88 56.564 140.044 56.276 141.1 55.7C142.156 55.124 142.996 54.296 143.62 53.216C144.244 52.136 144.556 50.876 144.556 49.436C144.556 47.996 144.244 46.748 143.62 45.692C143.02 44.612 142.192 43.784 141.136 43.208C140.08 42.608 138.904 42.308 137.608 42.308C136.288 42.308 135.1 42.608 134.044 43.208C132.988 43.784 132.148 44.612 131.524 45.692C130.924 46.748 130.624 47.996 130.624 49.436C130.624 50.876 130.924 52.136 131.524 53.216C132.148 54.296 132.988 55.124 134.044 55.7C135.124 56.276 136.312 56.564 137.608 56.564ZM160.519 62.54C158.935 62.54 157.363 62.384 155.803 62.072C154.243 61.784 152.959 61.376 151.951 60.848V55.124C153.247 55.796 154.591 56.3 155.983 56.636C157.399 56.972 158.743 57.14 160.015 57.14C161.191 57.14 162.079 56.96 162.679 56.6C163.279 56.24 163.579 55.724 163.579 55.052C163.579 54.548 163.411 54.116 163.075 53.756C162.763 53.372 162.295 53.024 161.671 52.712C161.047 52.4 160.075 51.968 158.755 51.416C156.427 50.432 154.735 49.34 153.679 48.14C152.623 46.94 152.095 45.464 152.095 43.712C152.095 42.272 152.491 40.988 153.283 39.86C154.099 38.732 155.227 37.856 156.667 37.232C158.107 36.608 159.763 36.296 161.635 36.296C163.171 36.296 164.539 36.416 165.739 36.656C166.939 36.896 168.091 37.28 169.195 37.808V43.388C167.083 42.284 164.959 41.732 162.823 41.732C161.671 41.732 160.747 41.924 160.051 42.308C159.379 42.668 159.043 43.196 159.043 43.892C159.043 44.588 159.391 45.152 160.087 45.584C160.783 46.016 162.067 46.604 163.939 47.348C165.643 48.044 166.963 48.728 167.899 49.4C168.859 50.072 169.555 50.852 169.987 51.74C170.419 52.628 170.635 53.756 170.635 55.124C170.635 57.452 169.783 59.276 168.079 60.596C166.399 61.892 163.879 62.54 160.519 62.54ZM172.447 58.364L176.443 54.728L178.171 53.18C179.587 51.932 180.667 50.936 181.411 50.192C182.179 49.448 182.803 48.692 183.283 47.924C183.787 47.156 184.039 46.4 184.039 45.656C184.039 43.424 182.779 42.308 180.259 42.308C179.035 42.308 177.823 42.524 176.623 42.956C175.447 43.388 174.355 43.988 173.347 44.756V38.672C174.427 37.928 175.687 37.352 177.127 36.944C178.567 36.512 180.103 36.296 181.735 36.296C183.607 36.296 185.227 36.644 186.595 37.34C187.963 38.036 189.007 38.996 189.727 40.22C190.447 41.444 190.807 42.824 190.807 44.36C190.807 46.208 190.375 47.828 189.511 49.22C188.671 50.588 187.303 52.136 185.407 53.864L182.203 56.78H191.599V62H172.447V58.364ZM202.508 49.4L193.436 36.836H200.744L206.18 44.36L211.616 36.836H218.924L209.816 49.4L218.924 62H211.616L206.18 54.476L200.708 62H193.4L202.508 49.4Z" fill="#0C1C25"/>
</svg>
